<svg width="30" height="30" viewBox="0 0 30 30" fill="none" xmlns="http://www.w3.org/2000/svg">
<path d="M29.5451 27.5977L21.6914 19.7461C23.3911 17.666 24.3288 15.0469 24.3288 12.1875C24.3288 5.45508 18.8705 0 12.138 0C5.40556 0 0 5.45684 0 12.1875C0 18.9182 5.45773 24.375 12.138 24.375C14.9976 24.375 17.621 23.3842 19.6987 21.7359L27.5523 29.5875C27.8805 29.8652 28.2439 30 28.6014 30C28.959 30 29.3212 29.8627 29.596 29.588C30.1429 29.0391 30.1429 28.1484 29.5451 27.5977ZM2.81327 12.1875C2.81327 7.01836 7.02026 2.8125 12.1908 2.8125C17.3613 2.8125 21.5683 7.01836 21.5683 12.1875C21.5683 17.3566 17.3613 21.5625 12.1908 21.5625C7.02026 21.5625 2.81327 17.3555 2.81327 12.1875Z" fill="#FF9F0D"/>
</svg>
