<svg width="60" height="49" viewBox="0 0 60 49" fill="none" xmlns="http://www.w3.org/2000/svg">
<path d="M22.3167 13.6857C21.2459 8.59419 20.7105 6.04837 22.1395 4.80562C23.5684 3.56287 26.0152 4.44627 30.9089 6.21293L32.1751 6.66991C33.5657 7.17202 34.261 7.42298 34.9641 7.37615C35.6672 7.32929 36.2984 6.98992 37.5608 6.31116L38.71 5.69337C43.1524 3.30486 45.3737 2.11061 47.05 3.14669C48.7265 4.18251 48.7482 6.76253 48.791 11.9224L48.8022 13.2575C48.8143 14.7237 48.8205 15.4568 49.1113 16.1177C49.4017 16.7785 49.944 17.2923 51.0285 18.3195L52.0159 19.2548C55.8322 22.8703 57.7404 24.6781 57.3474 26.5611C56.9547 28.444 54.521 29.1551 49.6538 30.5776L48.3948 30.9456C47.0115 31.3498 46.3202 31.5518 45.7967 32.0071C45.2732 32.4624 44.9771 33.1192 44.3851 34.4328L43.8458 35.6288C41.762 40.2516 40.7203 42.5631 38.801 42.691C36.8818 42.8188 35.3562 40.6784 32.305 36.3974L31.5156 35.2899C30.6487 34.0735 30.2151 33.4652 29.6011 33.0858C28.9868 32.7062 28.2616 32.5984 26.8113 32.3831L25.4907 32.1868C20.3867 31.4286 17.8346 31.0493 17.0412 29.2454C16.2478 27.4414 17.7386 25.4074 20.7201 21.3392L21.4914 20.2868C22.3386 19.1308 22.7622 18.5528 22.9062 17.863C23.0501 17.1732 22.898 16.4497 22.5936 15.003L22.3167 13.6857Z" stroke="#FF9F0D" stroke-width="2"/>
<path opacity="0.5" d="M19.1899 47.1294C19.8523 43.6411 22.1164 40.5988 25.3011 38.9178" stroke="#FF9F0D" stroke-width="2" stroke-linecap="round"/>
<path opacity="0.5" d="M10.1667 36.7543C11.2328 34.1705 11.8787 33.8093 13.1192 32.5299" stroke="#FF9F0D" stroke-width="2" stroke-linecap="round"/>
<path opacity="0.5" d="M1.97425 27.6732L2.16691 27.1017C4.2085 21.0465 8.04478 16.5564 13.2413 14.14L13.7317 13.912" stroke="#FF9F0D" stroke-width="2" stroke-linecap="round"/>
</svg>
